<svg xmlns="http://www.w3.org/2000/svg" width="512" height="512" aria-label="17839095" stroke-width="0.25" stroke-linecap="round" stroke-linejoin="round" shape-rendering="geometricPrecision"><path fill="#ffffff" fill-rule="evenodd" d="m374 19.6-.9.4-.1.8v121.2l1 .7h121l1-.3.3-.4v-121l-.2-1-.1-.1-1-.3Zm-339 42.3-.3.1-.7.2-1 .3-1 .2-1 .6-1 .3-.8.4-.2.2-1 .4-.5.4-1.5.9-.1.1-.9.6-.5.4-1 1-.5.4-1 1-.5.6-1 1-.5.7-.2.3-.6 1-.2.2-.5.8-.5.9-.1.1-.4 1-.5.9-.1.1-.4 1-.2 1-.3.7-.2.3-.4 2-.1 1-.4 2-.1 1v1l-.1 1v377l.1 1v1l.1 1 .1.4.1.6.4 2 .1 1 .3 1 .1.1.4.9.2 1 .4.7.2.3.4 1 .4.7.3.3.4 1 .3.3 1 1.4.3.3.7 1 .9 1 .1.1.8.9.2.2.9.8.1.1 1 .6.3.3.7.6.6.4.4.3 1 .5.2.2.8.5 1 .4.1.1.9.4 1 .3 1 .5 1 .3 1 .1 1 .3.4.1.6.2 2 .2h310l1-.1 1-.3h.1l.9-.2 2-.4 1-.3.1-.1.9-.4 1-.2.7-.4.3-.2 1-.4.6-.4.4-.3 1-.4.3-.3 1.4-1 .3-.3.9-.7.1-.1 1-.9 1-1 .8-1 .2-.2.6-.8.8-1 1.2-2 .4-.7.2-.3.4-1 .4-.9.1-.1.4-1 .2-1 .3-.8.1-.2.3-1 .6-6v-41l-1-.9h-151l-.2-.1-.8-.7-.1-.3v-360l-.9-.7h-179l-1 .1h-1l-2 .2Zm197 80.9-.5.2-.5.8-.1.2v121l1.1 1.1h121l.2-.1.8-.5.2-.5v-121l-.2-.7-.2-.3-.8-.2Zm141 124.1v121.2l.3.9.7.3h121l1-.3.3-1v-121l-.3-.5-1-.4h-121Z"/></svg>